grf
version=1
nRows=5
nColumns=73
inDegrees=yes
endheader
time	ground_force_1_vx	ground_force_1_vy	ground_force_1_vz	ground_force_1_px	ground_force_1_py	ground_force_1_pz	ground_moment_1_mx	ground_moment_1_my	ground_moment_1_mz	ground_force_2_vx	ground_force_2_vy	ground_force_2_vz	ground_force_2_px	ground_force_2_py	ground_force_2_pz	ground_moment_2_mx	ground_moment_2_my	ground_moment_2_mz	ground_force_3_vx	ground_force_3_vy	ground_force_3_vz	ground_force_3_px	ground_force_3_py	ground_force_3_pz	ground_moment_3_mx	ground_moment_3_my	ground_moment_3_mz	ground_force_4_vx	ground_force_4_vy	ground_force_4_vz	ground_force_4_px	ground_force_4_py	ground_force_4_pz	ground_moment_4_mx	ground_moment_4_my	ground_moment_4_mz	ground_force_5_vx	ground_force_5_vy	ground_force_5_vz	ground_force_5_px	ground_force_5_py	ground_force_5_pz	ground_moment_5_mx	ground_moment_5_my	ground_moment_5_mz	ground_force_6_vx	ground_force_6_vy	ground_force_6_vz	ground_force_6_px	ground_force_6_py	ground_force_6_pz	ground_moment_6_mx	ground_moment_6_my	ground_moment_6_mz	ground_force_7_vx	ground_force_7_vy	ground_force_7_vz	ground_force_7_px	ground_force_7_py	ground_force_7_pz	ground_moment_7_mx	ground_moment_7_my	ground_moment_7_mz	ground_force_8_vx	ground_force_8_vy	ground_force_8_vz	ground_force_8_px	ground_force_8_py	ground_force_8_pz	ground_moment_8_mx	ground_moment_8_my	ground_moment_8_mz
1.365000	72.773893	533.112980	9.709604	0.235411	0.000000	0.335998	-0.000000	0.349133	-0.000000	0.000000	0.000000	0.000000	0.000000	0.000000	0.000000	0.000000	0.000000	0.000000	0.000000	0.000000	0.000000	0.000000	0.000000	0.000000	0.000000	0.000000	0.000000	72.785832	533.074276	9.708158	0.233334	0.000000	0.334573	0.000000	0.348743	0.000000	0.000000	0.000000	0.000000	0.000000	0.000000	0.000000	0.000000	0.000000	0.000000	71.292131	534.214751	9.677609	0.237952	0.000000	0.335966	-0.000000	0.292415	0.000000	72.000290	533.629633	9.171731	0.241943	0.000000	0.335851	-0.000000	0.437329	-0.000000	0.000000	0.000000	0.000000	0.000000	0.000000	0.000000	0.000000	0.000000	0.000000
1.366000	73.435200	533.044041	9.616885	0.234259	0.000000	0.336023	-0.000000	0.375714	-0.000000	0.000000	0.000000	0.000000	0.000000	0.000000	0.000000	0.000000	0.000000	0.000000	0.000000	0.000000	0.000000	0.000000	0.000000	0.000000	0.000000	0.000000	0.000000	73.445343	533.010855	9.615632	0.232183	0.000000	0.334599	0.000000	0.375492	0.000000	0.000000	0.000000	0.000000	0.000000	0.000000	0.000000	0.000000	0.000000	0.000000	71.975152	534.245471	9.615932	0.236795	0.000000	0.335995	-0.000000	0.325002	0.000000	72.726420	533.585687	9.110444	0.240734	0.000000	0.335894	-0.000000	0.462100	-0.000000	0.000000	0.000000	0.000000	0.000000	0.000000	0.000000	0.000000	0.000000	0.000000
1.367000	74.081961	532.933160	9.512599	0.233112	0.000000	0.336049	-0.000000	0.399333	-0.000000	0.000000	0.000000	0.000000	0.000000	0.000000	0.000000	0.000000	0.000000	0.000000	0.000000	0.000000	0.000000	0.000000	0.000000	0.000000	0.000000	0.000000	0.000000	74.090423	532.905102	9.511536	0.231035	0.000000	0.334624	0.000000	0.399255	0.000000	0.000000	0.000000	0.000000	0.000000	0.000000	0.000000	0.000000	0.000000	0.000000	72.646281	534.229609	9.541733	0.235642	0.000000	0.336023	-0.000000	0.355321	0.000000	73.436512	533.502326	9.036214	0.239531	0.000000	0.335935	-0.000000	0.484823	-0.000000	0.000000	0.000000	0.000000	0.000000	0.000000	0.000000	0.000000	0.000000	0.000000
1.368000	74.714939	532.781937	9.396966	0.231970	0.000000	0.336075	-0.000000	0.419917	-0.000000	0.000000	0.000000	0.000000	0.000000	0.000000	0.000000	0.000000	0.000000	0.000000	0.000000	0.000000	0.000000	0.000000	0.000000	0.000000	0.000000	0.000000	0.000000	74.721842	532.758606	9.396093	0.229893	0.000000	0.334650	0.000000	0.419962	0.000000	0.000000	0.000000	0.000000	0.000000	0.000000	0.000000	0.000000	0.000000	0.000000	73.304107	534.169133	9.455385	0.234493	0.000000	0.336053	-0.000000	0.382969	0.000000	74.126879	533.383170	8.949103	0.238334	0.000000	0.335973	-0.000000	0.505422	-0.000000	0.000000	0.000000	0.000000	0.000000	0.000000	0.000000	0.000000	0.000000	0.000000
1.369000	75.335164	532.592013	9.270189	0.230834	0.000000	0.336101	-0.000000	0.437602	-0.000000	0.000000	0.000000	0.000000	0.000000	0.000000	0.000000	0.000000	0.000000	0.000000	0.000000	0.000000	0.000000	0.000000	0.000000	0.000000	0.000000	0.000000	0.000000	75.340628	532.573006	9.269499	0.228757	0.000000	0.334677	0.000000	0.437749	0.000000	0.000000	0.000000	0.000000	0.000000	0.000000	0.000000	0.000000	0.000000	0.000000	73.948364	534.065912	9.357309	0.233350	0.000000	0.336082	-0.000000	0.407688	0.000000	74.795241	533.231155	8.849369	0.237145	0.000000	0.336009	-0.000000	0.523902	-0.000000	0.000000	0.000000	0.000000	0.000000	0.000000	0.000000	0.000000	0.000000	0.000000
